<?xml version="1.0" encoding="UTF-8"?>

<svg id="Layer_1" data-name="Layer 1" xmlns="http://www.w3.org/2000/svg" viewBox="0 0 1920 1080">
  <defs>
    <style>
      .cls-1 {
        fill: #7ed5ea;
      }

      .cls-2 {
        fill: #008fc3;
      }

      .cls-3 {
        fill: #01153a;
      }
    </style>
  </defs>
  <g>
    <g>
      <path class="cls-1" d="m1101.32,528.64c1.73,0,3.19.32,4.36.95,1.18.64,2.14,1.32,2.88,2.05.87.85,1.55,1.82,2.04,2.91h10.68c-.5-2.06-1.33-4.04-2.51-5.95-1.18-1.91-2.63-3.6-4.36-5.09-1.73-1.48-3.71-2.67-5.94-3.54-2.23-.88-4.61-1.32-7.15-1.32-2.91,0-5.65.56-8.22,1.68-2.57,1.12-4.83,2.65-6.78,4.59-1.95,1.94-3.5,4.2-4.64,6.77-1.15,2.58-1.72,5.35-1.72,8.32s.57,5.74,1.72,8.32c1.14,2.58,2.69,4.83,4.64,6.77,1.95,1.94,4.21,3.47,6.78,4.59,2.57,1.12,5.31,1.68,8.22,1.68,2.54,0,4.92-.44,7.15-1.32,2.23-.88,4.21-2.06,5.94-3.54,1.73-1.48,3.19-3.18,4.36-5.09,1.18-1.91,2.01-3.89,2.51-5.95h-10.68c-.5,1.15-1.18,2.15-2.04,3-.74.73-1.7,1.39-2.88,2-1.18.61-2.63.91-4.36.91-3.03,0-5.57-1.03-7.61-3.09-2.04-2.06-3.06-4.82-3.06-8.27s1.02-6.21,3.06-8.27c2.04-2.06,4.58-3.09,7.61-3.09Z"/>
      <path class="cls-1" d="m1149.97,518.73c-.37-.06-.81-.09-1.3-.09-1.61,0-3.05.26-4.32.78-1.27.52-2.34,1.12-3.2,1.79-1.05.73-1.95,1.56-2.69,2.48l-1.86-4.59h-7.89v42.24h10.68v-22.5c0-2.76.82-4.97,2.46-6.66,1.64-1.68,3.76-2.53,6.36-2.53.56,0,1.07.03,1.53.09.46.06.85.12,1.16.18.37.06.71.12,1.02.18v-11.02c-.31-.06-.62-.12-.93-.18-.31-.06-.65-.12-1.02-.18Z"/>
      <path class="cls-1" d="m1191.84,524.55c-1.86-1.88-4.02-3.33-6.5-4.36-2.48-1.03-5.11-1.55-7.89-1.55s-5.65.56-8.22,1.68c-2.57,1.12-4.83,2.65-6.78,4.59-1.95,1.94-3.5,4.2-4.64,6.77-1.15,2.58-1.72,5.35-1.72,8.32s.57,5.74,1.72,8.32c1.14,2.58,2.69,4.83,4.64,6.77,1.95,1.94,4.21,3.47,6.78,4.59,2.57,1.12,5.31,1.68,8.22,1.68,2.41,0,4.66-.4,6.73-1.18,2.07-.79,3.93-1.8,5.57-3.04,1.64-1.24,3.03-2.65,4.18-4.23,1.14-1.57,2-3.15,2.55-4.73h-11.14c-.5.61-1.11,1.15-1.86,1.64-.68.42-1.5.79-2.46,1.09-.96.3-2.15.45-3.57.45-2.79,0-4.98-.7-6.59-2.09-1.61-1.39-2.66-3.12-3.16-5.18h29.71c.06-.42.12-.88.19-1.36.06-.42.12-.86.19-1.32.06-.45.09-.92.09-1.41,0-3.15-.54-6.04-1.62-8.68-1.08-2.64-2.55-4.89-4.41-6.77Zm-24.6,12.27c.49-2.3,1.62-4.24,3.39-5.82,1.76-1.57,4.04-2.36,6.82-2.36s5.06.79,6.82,2.36c1.76,1.58,2.89,3.51,3.39,5.82h-20.43Z"/>
      <polygon class="cls-1" points="1244.3 546.03 1235.48 518.64 1228.98 518.64 1220.16 546.03 1211.81 518.64 1201.13 518.64 1215.05 561.35 1224.34 561.35 1232.23 535.82 1240.12 561.35 1249.41 561.35 1263.33 518.64 1252.66 518.64 1244.3 546.03"/>
      <path class="cls-1" d="m1306.74,531.32c-1.08-2.64-2.55-4.89-4.41-6.77-1.86-1.88-4.02-3.33-6.5-4.36-2.48-1.03-5.11-1.55-7.89-1.55s-5.65.56-8.22,1.68c-2.57,1.12-4.83,2.65-6.78,4.59-1.95,1.94-3.5,4.2-4.64,6.77-1.15,2.58-1.72,5.35-1.72,8.32s.57,5.74,1.72,8.32c1.14,2.58,2.69,4.83,4.64,6.77,1.95,1.94,4.21,3.47,6.78,4.59,2.57,1.12,5.31,1.68,8.22,1.68,2.41,0,4.66-.4,6.73-1.18,2.07-.79,3.93-1.8,5.57-3.04,1.64-1.24,3.03-2.65,4.18-4.23,1.14-1.57,2-3.15,2.55-4.73h-11.14c-.5.61-1.11,1.15-1.86,1.64-.68.42-1.5.79-2.46,1.09-.96.3-2.15.45-3.57.45-2.79,0-4.98-.7-6.59-2.09-1.61-1.39-2.66-3.12-3.16-5.18h29.71c.06-.42.12-.88.19-1.36.06-.42.12-.86.19-1.32.06-.45.09-.92.09-1.41,0-3.15-.54-6.04-1.62-8.68Zm-29.01,5.5c.49-2.3,1.62-4.24,3.39-5.82,1.76-1.57,4.04-2.36,6.82-2.36s5.06.79,6.82,2.36c1.76,1.58,2.89,3.51,3.39,5.82h-20.43Z"/>
    </g>
    <g>
      <path class="cls-3" d="m805.81,529.26c1.18-1.3,2.53-2.3,4.06-3.01,1.53-.71,3.09-1.07,4.69-1.07,1.36,0,2.64.24,3.85.73,1.21.48,2.29,1.13,3.24,1.95.95.82,1.77,1.75,2.47,2.79.69,1.04,1.22,2.15,1.59,3.33h6.94c-.48-2.12-1.25-4.1-2.31-5.94-1.06-1.84-2.37-3.47-3.94-4.87-1.57-1.41-3.36-2.51-5.37-3.31-2.01-.8-4.16-1.2-6.46-1.2-2.66,0-5.18.53-7.57,1.59-2.39,1.06-4.47,2.53-6.23,4.42-1.77,1.89-3.16,4.13-4.17,6.73-1.01,2.6-1.52,5.47-1.52,8.61s.51,6.06,1.52,8.66c1.01,2.6,2.4,4.84,4.17,6.73,1.77,1.89,3.85,3.35,6.23,4.4,2.39,1.04,4.91,1.56,7.57,1.56,2.3,0,4.45-.4,6.46-1.2,2.01-.8,3.8-1.9,5.37-3.29,1.57-1.39,2.89-3.01,3.94-4.87,1.06-1.86,1.83-3.85,2.31-5.96h-6.94c-.39,1.18-.93,2.3-1.61,3.35-.68,1.06-1.5,1.99-2.45,2.79-.95.8-2.03,1.45-3.24,1.95-1.21.5-2.49.75-3.85.75-1.6,0-3.17-.35-4.69-1.07-1.53-.71-2.88-1.71-4.06-3.01-1.18-1.3-2.11-2.86-2.79-4.69-.68-1.83-1.02-3.86-1.02-6.1s.34-4.26,1.02-6.07c.68-1.81,1.61-3.37,2.79-4.67Z"/>
      <path class="cls-3" d="m871.96,524.66c-1.75-1.89-3.82-3.36-6.21-4.42-2.39-1.06-4.91-1.59-7.57-1.59s-5.18.53-7.57,1.59c-2.39,1.06-4.47,2.53-6.23,4.42-1.77,1.89-3.16,4.13-4.17,6.73-1.01,2.6-1.52,5.47-1.52,8.61s.51,6.06,1.52,8.66c1.01,2.6,2.4,4.84,4.17,6.73,1.77,1.89,3.85,3.35,6.23,4.4,2.39,1.04,4.91,1.56,7.57,1.56s5.18-.52,7.57-1.56c2.39-1.04,4.46-2.51,6.21-4.4,1.75-1.89,3.14-4.14,4.17-6.75,1.03-2.61,1.54-5.49,1.54-8.64s-.51-6.01-1.54-8.61c-1.03-2.6-2.42-4.84-4.17-6.73Zm-2.33,21.44c-.71,1.83-1.64,3.39-2.79,4.69-1.15,1.3-2.48,2.3-3.99,3.01-1.51.71-3.07,1.07-4.67,1.07s-3.17-.35-4.69-1.07c-1.53-.71-2.88-1.71-4.06-3.01-1.18-1.3-2.11-2.86-2.79-4.69-.68-1.83-1.02-3.86-1.02-6.1s.34-4.26,1.02-6.07c.68-1.81,1.61-3.37,2.79-4.67,1.18-1.3,2.53-2.3,4.06-3.01,1.53-.71,3.09-1.07,4.69-1.07s3.16.36,4.67,1.07c1.51.71,2.84,1.72,3.99,3.01,1.15,1.3,2.08,2.86,2.79,4.67.71,1.81,1.06,3.84,1.06,6.07s-.36,4.27-1.06,6.1Z"/>
      <path class="cls-3" d="m917.38,523.79c-1.48-1.59-3.2-2.84-5.15-3.76-1.95-.92-4.04-1.37-6.28-1.37-2,0-3.73.27-5.21.8-1.48.53-2.75,1.15-3.81,1.86-1.15.73-2.16,1.57-3.04,2.52l-1.86-4.72h-5.12v42.25h6.98v-24.38c0-3.57,1.03-6.42,3.08-8.55,2.05-2.12,4.73-3.18,8.02-3.18,1.39,0,2.7.27,3.92.82,1.22.55,2.3,1.34,3.24,2.38.94,1.04,1.68,2.28,2.24,3.73.56,1.45.84,3.05.84,4.79v24.38h6.94v-24.38c0-2.72-.43-5.2-1.29-7.45-.86-2.25-2.03-4.16-3.51-5.75Z"/>
      <path class="cls-3" d="m991.93,524.39c-1.68-1.83-3.64-3.24-5.89-4.24-2.25-1-4.65-1.5-7.19-1.5s-4.97.53-7.3,1.59c-2.33,1.06-4.36,2.53-6.1,4.42-1.74,1.89-3.11,4.13-4.13,6.73-1.01,2.6-1.52,5.47-1.52,8.61s.51,6.06,1.52,8.66c1.01,2.6,2.4,4.84,4.17,6.73,1.77,1.89,3.85,3.35,6.23,4.4,2.39,1.04,4.91,1.56,7.57,1.56,2.21,0,4.21-.32,6.01-.97,1.8-.65,3.41-1.5,4.83-2.54,1.42-1.04,2.66-2.28,3.72-3.72,1.06-1.44,1.93-2.89,2.63-4.38h-7.43c-.36.51-.82,1.07-1.38,1.65-.56.59-1.26,1.13-2.11,1.61-.85.48-1.78.91-2.79,1.29-1.01.38-2.17.57-3.47.57-1.48,0-2.94-.32-4.38-.97-1.44-.65-2.69-1.5-3.76-2.56-1.07-1.06-1.96-2.3-2.67-3.72-.71-1.42-1.13-2.87-1.25-4.35h29.69c.06-.33.12-.68.18-1.04.06-.3.12-.67.18-1.11.06-.44.09-.96.09-1.56,0-3.14-.49-6-1.47-8.57-.98-2.57-2.31-4.77-3.99-6.6Zm-24.68,12.85c.24-1.75.72-3.37,1.43-4.85.71-1.48,1.59-2.75,2.63-3.81,1.04-1.06,2.21-1.89,3.49-2.49,1.28-.6,2.64-.91,4.06-.91,2.78,0,5.21,1.08,7.28,3.24,2.07,2.16,3.35,5.1,3.83,8.82h-22.71Z"/>
      <path class="cls-3" d="m1037.11,523.79c-1.48-1.59-3.2-2.84-5.15-3.76-1.95-.92-4.04-1.37-6.28-1.37-2,0-3.73.27-5.21.8-1.48.53-2.75,1.15-3.81,1.86-1.15.73-2.16,1.57-3.04,2.52l-1.86-4.72h-5.12v42.25h6.98v-24.38c0-3.57,1.03-6.42,3.08-8.55,2.05-2.12,4.73-3.18,8.02-3.18,1.39,0,2.7.27,3.92.82,1.22.55,2.3,1.34,3.24,2.38.94,1.04,1.68,2.28,2.24,3.73.56,1.45.84,3.05.84,4.79v24.38h6.94v-24.38c0-2.72-.43-5.2-1.29-7.45-.86-2.25-2.03-4.16-3.51-5.75Z"/>
      <path class="cls-3" d="m932.88,518.65h-3.26v6.6h7.43v22.04c0,2.14.32,4.06.97,5.77.65,1.71,1.53,3.18,2.65,4.4,1.12,1.22,2.4,2.18,3.85,2.86,1.45.69,2.98,1.03,4.58,1.03,1.3,0,2.36-.15,3.17-.46.36-.12.7-.27,1-.46v-6.09c-.18.12-.39.21-.63.27-.51.12-1.07.18-1.68.18-2.12,0-3.81-.66-5.08-1.97-1.27-1.31-1.9-3.16-1.9-5.54v-22.04h9.29v-6.6h-20.4Z"/>
      <path class="cls-3" d="m1052.61,518.65h-3.26v6.6h7.43v22.04c0,2.14.32,4.06.97,5.77.65,1.71,1.53,3.18,2.65,4.4,1.12,1.22,2.4,2.18,3.85,2.86,1.45.69,2.98,1.03,4.58,1.03,1.3,0,2.36-.15,3.17-.46.36-.12.7-.27,1-.46v-6.09c-.18.12-.39.21-.63.27-.51.12-1.07.18-1.68.18-2.12,0-3.81-.66-5.08-1.97-1.27-1.31-1.9-3.16-1.9-5.54v-22.04h9.29v-6.6h-20.4Z"/>
    </g>
  </g>
  <g>
    <path class="cls-2" d="m744.74,600.53l-2.12-2.65h-108.12c15.45,16.51,37.44,26.83,61.85,26.83,20.01,0,38.4-6.95,52.89-18.55l-4.5-5.63Z"/>
    <path class="cls-2" d="m696.35,455.29c-24.41,0-46.4,10.32-61.85,26.83h108.12l2.12-2.65,4.5-5.63c-14.49-11.61-32.88-18.55-52.89-18.55Z"/>
    <g>
      <path class="cls-1" d="m711.94,559.5h-40.39c-2.76-.99-4.74-3.62-4.75-6.72v-26.59c0-3.93,3.2-7.12,7.13-7.12h39.15l23.94-29.95h-108.4c-10.66,14.16-16.98,31.79-16.98,50.88s6.32,36.72,16.98,50.88h108.41l-25.09-31.38Zm-49.19-8.21l-19.33,11.7v-45.98l19.33,11.39v22.89Z"/>
      <path class="cls-1" d="m677.19,525.43c-1.32,0-2.39,1.07-2.39,2.39s1.07,2.39,2.39,2.39h12.65c.66,0,1.26-.26,1.69-.7.43-.43.7-1.03.7-1.69,0-1.32-1.07-2.39-2.39-2.39h-12.65Z"/>
    </g>
  </g>
</svg>